PathFileType	4	(X/Y/Z)	flex.trc
DataRate	CameraRate	NumFrames	NumMarkers	Units	OrigDataRate	OrigDataStartFrame	OrigNumFrames
100.0	100.0	10	17	mm	100.0	677	1352
Frame#	Time	STER			XIPH			T10			T1			CLAV_AC			SCAP_AA			SCAP_CP			SCAP_TS			SCAP_IA			DELT			ARMl			EPICm			EPICl			LARM_elb			STYLr			STYLu			CLAV_SC		
		X1	Y1	Z1	X2	Y2	Z2	X3	Y3	Z3	X4	Y4	Z4	X5	Y5	Z5	X6	Y6	Z6	X7	Y7	Z7	X8	Y8	Z8	X9	Y9	Z9	X10	Y10	Z10	X11	Y11	Z11	X12	Y12	Z12	X13	Y13	Z13	X14	Y14	Z14	X15	Y15	Z15	X16	Y16	Z16	X17	Y17	Z17

677	6.76	399.0611267089844	91.08058166503906	1441.0159912109375	393.50030517578125	146.6235809326172	1275.6439208984375	388.02001953125	-87.70792388916016	1243.3387451171875	392.09100341796875	-69.11640930175781	1469.6434326171875	592.6317138671875	27.40888023376465	1450.44287109375	597.919921875	-17.669645309448242	1434.3868408203125	545.6724853515625	-29.876848220825195	1470.6375732421875	525.9300537109375	-86.94001770019531	1418.7972412109375	495.4676208496094	-102.82476806640625	1281.494384765625	652.1851806640625	-1.6062641143798828	1297.5582275390625	667.8176879882812	-17.175996780395508	1251.5902099609375	631.367431640625	0.1538248509168625	1088.9942626953125	716.0721435546875	-28.49019432067871	1140.5518798828125	656.2481079101562	-40.599239349365234	1087.8258056640625	839.3278198242188	83.58499908447266	916.01953125	778.4722900390625	41.529197692871094	883.2481689453125	435.7332458496094	86.20171356201172	1444.246826171875
678	6.7700000000000005	399.1148681640625	91.07798767089844	1441.0435791015625	393.3095397949219	146.66998291015625	1275.6734619140625	387.960693359375	-87.66969299316406	1243.300537109375	391.99127197265625	-69.1527099609375	1469.644287109375	592.6664428710938	27.1789608001709	1450.644775390625	597.8384399414062	-17.922130584716797	1434.5185546875	545.6129760742188	-30.075651168823242	1470.6593017578125	525.7576293945312	-87.04346466064453	1418.651123046875	495.56536865234375	-102.73712921142578	1281.321533203125	652.291015625	-2.212327241897583	1297.98583984375	668.0989990234375	-17.913747787475586	1252.11376953125	631.3801879882812	-0.6506085991859436	1089.328369140625	716.5396728515625	-29.900087356567383	1141.2557373046875	656.4652709960938	-41.38718032836914	1088.3143310546875	842.03466796875	79.9287109375	917.211181640625	780.0103149414062	39.201011657714844	884.1211547851562	435.85955810546875	86.27079010009766	1444.2215576171875
679	6.78	398.8730773925781	91.07103729248047	1440.9713134765625	393.381591796875	146.7205352783203	1275.726806640625	387.86590576171875	-87.61788177490234	1243.2626953125	391.97613525390625	-69.20635986328125	1469.5572509765625	592.7379760742188	26.955310821533203	1450.8568115234375	597.804931640625	-18.15953826904297	1434.677978515625	545.5740356445312	-30.299230575561523	1470.751220703125	525.6988525390625	-87.12606811523438	1418.5938720703125	495.5924072265625	-102.70338439941406	1281.2054443359375	652.4329223632812	-2.8509938716888428	1298.37255859375	668.2402954101562	-18.68682098388672	1252.6214599609375	631.9371337890625	-1.0538771152496338	1089.744384765625	716.4901733398438	-31.420719146728516	1141.8583984375	656.60302734375	-41.97294235229492	1088.74853515625	844.2034912109375	76.48536682128906	918.117431640625	781.7890014648438	36.31254196166992	884.772216796875	435.9974365234375	86.28807830810547	1444.26611328125
680	6.79	399.2404479980469	91.05059814453125	1441.1553955078125	393.427001953125	146.8070831298828	1275.79345703125	387.8533935546875	-87.51063537597656	1243.0423583984375	391.94769287109375	-69.25770568847656	1469.50390625	592.7057495117188	26.645397186279297	1451.039794921875	597.6495971679688	-18.423736572265625	1434.7979736328125	545.4567260742188	-30.532329559326172	1470.803466796875	525.6430053710938	-87.20414733886719	1418.576171875	495.6627197265625	-102.60266876220703	1281.17333984375	652.6046142578125	-3.4957122802734375	1298.9173583984375	668.3262939453125	-19.506366729736328	1253.1221923828125	630.6592407226562	-2.6454293727874756	1090.0693359375	716.6990966796875	-32.86846923828125	1142.4583740234375	656.871826171875	-42.679046630859375	1089.227783203125	846.7183227539062	73.13155364990234	919.2195434570312	783.788818359375	34.304443359375	885.4220581054688	436.0592346191406	86.28578186035156	1444.3297119140625
681	6.8	399.3304138183594	91.0356216430664	1441.1632080078125	393.4255065917969	146.8607177734375	1275.8544921875	387.77178955078125	-87.48487854003906	1243.1376953125	391.9585876464844	-69.30171203613281	1469.467529296875	592.6422729492188	26.319311141967773	1451.2681884765625	597.5284423828125	-18.69529914855957	1434.948486328125	545.3927001953125	-30.723608016967773	1470.9476318359375	525.4656982421875	-87.31256103515625	1418.6297607421875	495.59490966796875	-102.51250457763672	1281.1573486328125	652.7615966796875	-4.180520057678223	1299.286376953125	668.42919921875	-20.342830657958984	1253.5421142578125	633.4007568359375	-1.7710731029510498	1090.54736328125	716.9601440429688	-34.17806625366211	1143.1466064453125	657.1928100585938	-43.32477951049805	1089.7366943359375	849.4825439453125	69.87640380859375	920.4241333007812	785.4033813476562	32.269187927246094	886.3882446289062	436.0986633300781	86.2457275390625	1444.4010009765625
682	6.8100000000000005	399.32513427734375	91.00069427490234	1441.19970703125	393.4729919433594	146.92747497558594	1275.9132080078125	387.7261047363281	-87.43818664550781	1243.068115234375	391.9454345703125	-69.34972381591797	1469.393310546875	592.6749877929688	26.021455764770508	1451.5093994140625	597.3164672851562	-18.967470169067383	1435.097412109375	545.3070678710938	-30.930208206176758	1471.0164794921875	525.3230590820312	-87.41522979736328	1418.54931640625	495.5408935546875	-102.44770812988281	1281.1824951171875	652.8049926757812	-4.837451457977295	1299.57080078125	668.5473022460938	-21.24778175354004	1254.05859375	634.5350952148438	-1.8235981464385986	1091.0875244140625	717.2360229492188	-35.489898681640625	1143.780517578125	657.5240478515625	-43.82997131347656	1090.1988525390625	851.8392333984375	66.81503295898438	921.6168823242188	787.0471801757812	30.421329498291016	887.29736328125	436.1841735839844	86.21533203125	1444.407958984375
683	6.82	399.3437194824219	90.93557739257812	1441.1851806640625	393.4751281738281	146.98858642578125	1276.005126953125	387.7464904785156	-87.34210205078125	1242.904296875	391.9126892089844	-69.42684936523438	1469.3599853515625	592.6444091796875	25.773256301879883	1451.736328125	597.1724243164062	-19.217344284057617	1435.2210693359375	545.1834716796875	-31.123781204223633	1471.1075439453125	525.30029296875	-87.5169448852539	1418.512451171875	495.4226989746094	-102.3738784790039	1281.1514892578125	653.6688842773438	-5.452614784240723	1300.12060546875	668.6362915039062	-22.160547256469727	1254.4732666015625	635.3624267578125	-2.2031660079956055	1091.4998779296875	717.5634765625	-36.73259735107422	1144.4278564453125	658.00341796875	-44.44961166381836	1090.6947021484375	854.1066284179688	63.93780517578125	922.7348022460938	788.93310546875	28.50389289855957	888.2344970703125	436.2225036621094	86.16927337646484	1444.5098876953125
684	6.83	398.97802734375	90.87155151367188	1441.165283203125	393.52789306640625	147.07823181152344	1276.1009521484375	387.5938720703125	-87.29225158691406	1242.8883056640625	391.846923828125	-69.51688385009766	1469.2457275390625	592.5999755859375	25.524272918701172	1451.9271240234375	597.0139770507812	-19.51829719543457	1435.3741455078125	545.0908203125	-31.351778030395508	1471.17578125	525.0430297851562	-87.65148162841797	1418.5482177734375	495.4329833984375	-102.28595733642578	1281.0245361328125	653.7128295898438	-6.182319164276123	1300.5009765625	668.7715454101562	-23.043703079223633	1255.0062255859375	636.1929931640625	-2.576158285140991	1091.884521484375	717.98291015625	-37.87076950073242	1145.099609375	658.5285034179688	-45.04102325439453	1091.2044677734375	856.0320434570312	61.22077560424805	923.8219604492188	790.95849609375	26.616558074951172	888.89892578125	436.2397155761719	86.06250762939453	1444.552001953125
685	6.84	399.2451171875	90.81109619140625	1441.31298828125	393.5031433105469	147.13926696777344	1276.1585693359375	387.5517272949219	-87.18460845947266	1242.7313232421875	391.7593078613281	-69.61216735839844	1469.1551513671875	592.5030517578125	25.208927154541016	1452.10302734375	596.8399047851562	-19.80846405029297	1435.47314453125	544.9334106445312	-31.593801498413086	1471.199462890625	524.9620971679688	-87.78174591064453	1418.37451171875	495.47320556640625	-102.18897247314453	1280.9293212890625	653.32958984375	-6.944362640380859	1300.941162109375	669.107421875	-23.869701385498047	1255.599365234375	636.9889526367188	-3.047240972518921	1092.216552734375	718.4915771484375	-38.947025299072266	1145.7794189453125	659.1422729492188	-45.66201400756836	1091.6943359375	858.4025268554688	58.738800048828125	924.9226684570312	792.6807250976562	24.8421630859375	889.9536743164062	436.19451904296875	85.97795867919922	1444.6920166015625
686	6.8500000000000005	399.23828125	90.73180389404297	1441.3389892578125	393.4945983886719	147.19715881347656	1276.24169921875	387.4819641113281	-87.12904357910156	1242.7071533203125	391.6829833984375	-69.68745422363281	1469.0638427734375	592.4747924804688	24.87505531311035	1452.218994140625	596.7277221679688	-20.067289352416992	1435.5745849609375	544.8287963867188	-31.7956485748291	1471.20703125	524.7669067382812	-87.9124526977539	1418.3671875	495.3502197265625	-102.05138397216797	1280.8428955078125	653.5142822265625	-7.551259994506836	1301.23828125	669.2283935546875	-24.62437629699707	1256.0479736328125	639.2630004882812	-2.854067325592041	1092.5887451171875	719.0348510742188	-39.93241882324219	1146.4830322265625	659.8141479492188	-46.29146957397461	1092.187744140625	860.3425903320312	56.482608795166016	926.022216796875	794.3623657226562	23.037120819091797	890.818603515625	436.1738586425781	85.8937759399414	1444.7554931640625
